<?xml version="1.0" encoding="utf-8"?>
<!-- Generator: Adobe Illustrator 18.1.1, SVG Export Plug-In . SVG Version: 6.00 Build 0)  -->
<!DOCTYPE svg PUBLIC "-//W3C//DTD SVG 1.1//EN" "http://www.w3.org/Graphics/SVG/1.1/DTD/svg11.dtd">
<svg version="1.1" id="Layer_1" xmlns="http://www.w3.org/2000/svg" xmlns:xlink="http://www.w3.org/1999/xlink" x="0px" y="0px"
	 viewBox="0 0 410 114.7" enable-background="new 0 0 410 114.7" xml:space="preserve">
<g>
	<defs>
		<path id="SVGID_1_" d="M130.3,105.4c-0.5-0.1-1-0.2-1.6-0.3c-5.4-0.3-10.9-0.4-16.3-1.1c-8.7-1.1-14.5-7.6-15.2-16.4
			c-1-13.1-1-26.3,0-39.4c0.7-8.7,7-15.4,15.7-16.2c12.3-1.2,24.6-1.3,36.9-1c5.8,0.2,11.6,0.4,17.5,0.7c9.1,0.5,16,6.2,17.2,14.3
			c0.7,4.8,1,9.7,1,14.6c0,8.8-0.2,17.7-0.6,26.5c-0.5,10.2-7.2,16.6-17.4,17.2c-5.3,0.3-10.5,0.5-15.8,0.8c-0.4,0-0.7,0.2-1.1,0.3
			C143.9,105.4,137.1,105.4,130.3,105.4z M140.9,95.6c0-0.1,0-0.2,0-0.2c1.1,0,2.2,0,3.3,0c7.5-0.3,15.1-0.5,22.6-1
			c4.8-0.4,8.1-4,8.5-8.8c0.9-11.7,0.8-23.4-0.1-35.1c-0.4-4.9-4-8.4-8.9-8.8c-16.4-1.2-32.8-1-49.2-0.1c-5.3,0.3-9.9,3.6-10.3,10.4
			c-0.5,10.9-0.6,21.7,0.1,32.6c0.4,6.2,3.9,9.8,10.1,10.1C125,95.1,132.9,95.3,140.9,95.6z M9.3,79.8c0.2,2.6,0.5,5.1,0.7,7.7
			c0.6,7.1,3.7,12.6,10.4,15.4c2.9,1.2,6.2,1.4,9.4,1.8c2.9,0.3,5.8,0.3,8.6,0.5c0.3,0,0.6,0.2,0.9,0.3c8.4,0,16.9,0,25.3,0
			c0.2-0.1,0.5-0.2,0.7-0.3c3.3-0.3,6.6-0.5,10-0.8c8.7-0.7,15.1-5.6,16.7-13.3c0.7-3.6,0.5-7.5,0.8-11.3c-3.5,0-6.6,0-9.9,0
			c0,2.1,0,4,0,5.9c-0.1,3.5-1.7,6.2-5,7.3c-2.5,0.9-5.3,1.5-7.9,1.6c-8.4,0.4-16.8,0.7-25.3,0.7c-5.8,0-11.5-0.4-17.3-1
			c-3.9-0.4-6.8-3.6-7.5-7.5c-0.2-1.4-0.4-2.8-0.4-4.1c0-10.6-0.1-21.2,0.2-31.8c0.1-5.4,4-8.9,9.5-9.2c4.6-0.3,9.2-0.6,13.8-0.7
			c10.1-0.2,20.2-0.5,30.3,0.9c7.6,1.1,9.9,4.6,9.7,10.8c-0.1,1.2,0,2.5,0,3.8c3.3,0,6.4,0,9.7,0c0-2.6,0.1-5.1,0-7.6
			c-0.2-7.7-4.8-13.9-12.2-16C78,32.4,75.4,32.3,73,32c-14.7-1.7-29.4-1.1-44.1-0.2c-2.3,0.1-4.7,0.4-6.9,1.1
			c-6.9,2-11.5,8.3-12,15.8c-0.2,2.5-0.4,4.9-0.7,7.4C9.3,64,9.3,71.9,9.3,79.8z M306.6,5.4c-0.4,0.2-0.9,0.4-1.3,0.6
			c-7.6,2.9-9.5,13.1-3.4,18.4c3.4,3,7.3,3.6,11.5,1.7c4.3-2,6.3-5.5,6.2-10.1c-0.1-4.6-2.4-8-6.7-9.9c-0.5-0.2-1.1-0.5-1.6-0.7
			C309.7,5.4,308.2,5.4,306.6,5.4z M393.7,49c0-7.3-4-13.3-10.8-15.8c-2.5-0.9-5.3-1.2-8-1.5c-16-1.8-31.9-1.3-47.9,0.1
			c-8.6,0.7-14.9,7-15.7,15.7c-1.3,13.7-1.2,27.4,0.1,41.1c0.8,8.1,6.7,14.3,14.7,15.3c5.6,0.7,11.3,0.8,16.9,1.1
			c11.7,0.5,23.4,0.3,35.1-1.1c9.1-1.1,15.1-7.5,15.6-16.5c0.2-2.7,0-5.4,0-8.1c-3.3,0-6.4,0-9.6,0c0,1.6,0,3.2,0,4.7
			c0,5.6-2.1,8.4-7.7,9.6c-3.3,0.7-6.7,1-10.1,1.2c-11.9,0.9-23.9,0.4-35.8-0.3c-5.8-0.4-9.2-3.7-9.7-9.6c-0.2-2.2-0.4-4.4-0.4-6.6
			c0.1-9.4,0.1-18.8,0.5-28.1c0.2-4.8,4.1-8.4,8.8-8.5c11.3-0.3,22.6-0.7,33.9-0.7c4.6,0,9.3,0.7,13.8,1.7c4.5,1,6.4,3.9,6.4,8.5
			c0,1.8,0,3.5,0,5.4c3.3,0,6.4,0,9.7,0C393.7,53.8,393.7,51.4,393.7,49z M189.7,31.6c0.6,0,1.2,0,1.8,0c18.7,0,37.3,0,56-0.1
			c4.6,0,9.1,0.3,13.3,2.3c4.2,2,6.8,5.2,7.8,9.8c1.6,7.6,1.5,15.2-0.1,22.8c-0.9,4.3-3.7,6.9-7.5,8.8c-3.5,1.7-7.3,2.2-11.2,2.3
			c-16.1,0.1-32.2,0.1-48.3,0.1c-0.7,0-1.3,0-2.1,0c0,9.1,0,18,0,27c-3.3,0-6.4,0-9.7,0C189.7,80.2,189.7,56,189.7,31.6z
			 M199.8,40.8c0,9.2,0,18.2,0,27.5c0.7,0,1.3,0,1.9,0c15.9,0,31.9,0,47.8,0c1,0,2-0.1,3-0.2c4.2-0.5,7.2-3.1,7.5-7.4
			c0.3-4.4,0.2-8.8-0.1-13.3c-0.1-2.4-1.6-4.4-3.8-5.3c-2-0.8-4.3-1.5-6.4-1.5c-16.2-0.1-32.3,0-48.5,0
			C200.7,40.7,200.3,40.7,199.8,40.8z M273.5,104.3c1.5,0.1,2.3-0.4,3.1-1.8C289,79.3,301.5,56.2,313.9,33c0.3-0.5,0.4-1,0.7-1.6
			c-3,0-5.8,0-8.7,0c-1,0-1.6,0.3-2,1.2c-10.7,19.9-21.4,39.9-32.1,59.8c-2.1,3.8-4.1,7.7-6.3,11.8
			C268.3,104.3,270.9,104.2,273.5,104.3z M260.6,104.3c1.2,0,1.8-0.4,2.3-1.4c12.5-23.3,25-46.6,37.5-69.9c0.2-0.5,0.5-0.9,0.8-1.6
			c-2.9,0-5.5,0.1-8.1,0c-1.5-0.1-2.2,0.4-2.9,1.7c-12,22.4-24,44.7-36,67.1c-0.7,1.2-1.3,2.5-2.1,4
			C255.1,104.3,257.9,104.2,260.6,104.3z M406.7,36.5c0,2.8-2.2,5-5,4.9c-2.7-0.1-4.9-2.3-4.9-5.1c0-2.9,2.3-5.1,5.1-5.1
			C404.7,31.3,406.7,33.5,406.7,36.5z M405.8,36.3c0-2.2-1.8-4.1-4-4.1c-2.2,0-4,1.8-4,4c0,2.2,1.8,4.1,4,4.1
			C403.9,40.4,405.8,38.5,405.8,36.3z M403.7,35.7c0.2-1.4-0.2-1.9-1.6-2c-0.7,0-1.4,0-2.3,0c0.1,1.7,0.2,3.3,0.2,4.9
			c0.2,0,0.4,0.1,0.6,0.1c0.2-0.6,0.4-1.3,0.5-1.8c2.2-1.4,0.8,2.2,2.6,1.6C403.6,37.6,403.5,36.7,403.7,35.7z M397.3,36.4
			c0.5,4.5,4.6,5.5,7.2,3.5c1.4-1,2.1-3.5,1.3-5.4c-0.9-2.1-2.5-3-4.7-2.7c-2.2,0.3-3.4,1.6-3.7,3.8c0,0.2-0.1,0.3-0.2,0.5
			 M403.1,38.3c-0.3-0.9-0.6-1.8-0.8-2.7 M400.5,38.3c0.2-0.9,0.3-1.8,0.5-2.7"/>
	</defs>
	<clipPath id="SVGID_2_">
		<use xlink:href="#SVGID_1_"  overflow="visible"/>
	</clipPath>
	<g clip-path="url(#SVGID_2_)">
		
			<image overflow="visible" width="2282" height="1448" xlink:href="../../color centric/Screen Shot 2015-05-12 at 7.24.24 PM.png"  transform="matrix(0.2773 0 0 0.2773 -72.6184 -110.1414)">
		</image>
	</g>
</g>
</svg>
